# xmcd
#
# Track frame offsets:
#	150
#	35972
#	63752
#	77902
#	98965
#	117492
#	136390
#	152355
#	166560
#	187557
#	218722
#
# Disc length: 3247
#
# Revision: 1
# Processed by: cddbd v1.5.1PL0 Copyright (c) Steve Scherf et al.
# Submitted via: CDex 1.50
# Normalized: r0:DSETVAR1,TDELIM( - )
#
DISCID=860cad0b
DTITLE=Various Artist - City Swing CD Sampler 1
DYEAR=1900
DGENRE=Jazz
TTITLE0=Benny Golson Quartet - Voyage
TTITLE1=Carmen McRae - Inside A Silent Tear
TTITLE2=Ella Fitzgerald - I Love You Madly
TTITLE3=Stan Getz - They All Fall In Love
TTITLE4=Carmen McRae - Masquerade
TTITLE5=Count Basie - Basie's Thought
TTITLE6=Sarah Vaughan - What Now My Love
TTITLE7=Duke Ellington - Things Ain't What They Used To Be
TTITLE8=Zoot Sims - Come Rain Or Come Shine
TTITLE9=Joe Lovano - Apex
TTITLE10=Dizzy Gillespie - Things To Come
EXTD=
EXTT0=
EXTT1=
EXTT2=
EXTT3=
EXTT4=
EXTT5=
EXTT6=
EXTT7=
EXTT8=
EXTT9=
EXTT10=
PLAYORDER=
